<svg width="30" height="31" xmlns="http://www.w3.org/2000/svg" xmlns:xlink="http://www.w3.org/1999/xlink" overflow="hidden"><g transform="translate(-545 -118)"><path d="M558.556 140C559.354 140 560 140 560 140L560 148C560 148 559.354 148 558.556 148L557.445 148C556.647 148 556 148 556 148L556 140C556 140 556.647 140 557.445 140Z" fill="#BA9BC9" fill-rule="evenodd"/><path d="M559.019 145C559.561 145 560 145 560 145L560 148C560 148 559.561 148 559.019 148L554.981 148C554.439 148 554 148 554 148L554 145C554 145 554.439 145 554.981 145Z" fill="#BA9BC9" fill-rule="evenodd"/><path d="M562.083 148C561.485 148 561 148 561 148L561 140C561 140 561.485 140 562.083 140L562.917 140C563.515 140 564 140 564 140L564 148C564 148 563.515 148 562.917 148Z" fill="#BA9BC9" fill-rule="evenodd"/><path d="M561.818 148C561.366 148 561 148 561 148L561 145C561 145 561.366 145 561.818 145L565.182 145C565.634 145 566 145 566 145L566 148C566 148 565.634 148 565.182 148Z" fill="#BA9BC9" fill-rule="evenodd"/><path d="M572 131.791C571.998 128.618 569.425 126.047 566.253 126.049 565.87 126.05 565.487 126.088 565.111 126.165 565.111 126.125 565.111 126.087 565.111 126.05 565.11 122.155 561.954 118.999 558.062 119 554.46 119.001 551.439 121.718 551.056 125.301L551.016 125.301C548.245 125.303 545.999 127.551 546 130.324 546.001 132.274 547.13 134.047 548.897 134.872 547.671 137.818 549.065 141.202 552.01 142.428 554.027 143.268 556.345 142.898 558 141.471 560.474 143.683 564.272 143.47 566.483 140.995 567.404 139.965 567.941 138.648 568.005 137.268 570.387 136.507 572.002 134.292 572 131.791Z" fill="#FFBA4A" fill-rule="evenodd"/><path d="M574 131.802C574.001 128.635 571.434 126.068 568.266 126.066 568.265 126.066 568.263 126.066 568.262 126.066 567.876 126.066 567.491 126.104 567.112 126.18 567.112 126.143 567.112 126.104 567.112 126.066 567.125 122.177 563.981 119.013 560.089 119 556.468 118.988 553.427 121.721 553.056 125.321L553.017 125.32C550.245 125.322 547.999 127.569 548 130.339 548.001 132.287 549.13 134.058 550.896 134.882 549.677 137.829 551.081 141.206 554.03 142.423 556.038 143.252 558.341 142.885 559.991 141.474 562.467 143.683 566.265 143.468 568.476 140.994 569.396 139.963 569.933 138.646 569.996 137.266 572.379 136.511 573.999 134.3 574 131.802Z" fill="#FFF754" fill-rule="evenodd"/><path d="M558.91 124.941C558.942 126.667 557.671 128.091 556.071 128.121 554.471 128.151 553.147 126.776 553.115 125.05 553.082 123.324 554.353 121.9 555.953 121.87 557.554 121.84 558.877 123.215 558.91 124.941Z" fill="#FFFFFF" fill-rule="evenodd"/><path d="M557 125C557 125.552 556.552 126 556 126 555.448 126 555 125.552 555 125 555 124.448 555.448 124 556 124 556.552 124 557 124.448 557 125Z" fill-rule="evenodd"/><path d="M566.698 124.94C566.731 126.666 565.46 128.09 563.859 128.12 562.259 128.151 560.936 126.776 560.903 125.05 560.871 123.324 562.141 121.9 563.742 121.87 565.342 121.84 566.666 123.214 566.698 124.94Z" fill="#FFFFFF" fill-rule="evenodd"/><path d="M565 125C565 125.552 564.329 126 563.5 126 562.672 126 562 125.552 562 125 562 124.448 562.672 124 563.5 124 564.329 124 565 124.448 565 125Z" fill-rule="evenodd"/><path d="M555.5 121.297C556.306 120.16 557.648 120.25 558.5 121.5" stroke="#000000" stroke-width="0.0969029" stroke-miterlimit="8" fill="none" fill-rule="evenodd"/><path d="M562.5 121.5C563.182 120.342 564.523 120.164 565.5 121.102" stroke="#000000" stroke-width="0.0969029" stroke-miterlimit="8" fill="none" fill-rule="evenodd"/><path d="M559.023 130.5 562.116 130.5C562.326 130.498 562.499 130.651 562.5 130.84 562.5 130.847 562.5 130.855 562.5 130.863 562.408 132.297 561.983 137.465 560.615 137.5 559.288 137.535 558.669 132.631 558.502 131.012 558.476 130.754 558.688 130.526 558.975 130.502 558.991 130.501 559.007 130.5 559.023 130.5Z" stroke="#F15A24" stroke-width="0.0969029" stroke-miterlimit="8" fill="#F15A24" fill-rule="evenodd"/><path d="M558.671 141C558.55 141 558.428 140.872 558.305 140.628 558.217 140.454 558.147 140.272 558.096 140.086 557.981 140.1 557.796 140.116 557.538 140.129 557.28 140.143 557.109 140.161 556.98 140.182 556.909 140.328 556.785 140.549 556.611 140.842 556.555 140.932 556.447 140.987 556.329 140.986 556.245 140.986 556.163 140.959 556.1 140.911 556.035 140.863 555.998 140.793 556 140.719 556.079 140.48 556.193 140.251 556.337 140.036 556.316 140.001 556.306 139.962 556.308 139.922 556.308 139.858 556.39 139.808 556.532 139.772 556.751 139.444 556.993 139.107 557.262 138.756 557.644 138.251 557.881 138 557.97 138 558.139 138 558.252 138.089 558.31 138.264 558.368 138.44 558.389 138.619 558.455 138.904 558.55 139.287 558.663 139.724 558.8 140.218 558.832 140.308 558.871 140.397 558.916 140.482 558.961 140.563 558.99 140.649 559 140.738 559.002 140.812 558.965 140.883 558.9 140.931 558.837 140.979 558.755 141.003 558.671 141ZM557.812 138.95 557.317 139.676C557.423 139.659 557.531 139.649 557.638 139.644L557.965 139.624C557.928 139.455 557.875 139.23 557.812 138.954Z" fill="#51210B" fill-rule="evenodd"/><path d="M559.216 140.845C559.158 140.846 559.103 140.819 559.062 140.772 559.021 140.727 558.998 140.664 559 140.598 559 140.478 559 140.296 559.014 140.056 559.029 139.816 559.029 139.643 559.029 139.512 559.029 139.382 559.029 139.177 559.029 138.91 559.029 138.643 559.029 138.441 559.029 138.306 559.031 138.227 559.061 138.152 559.112 138.099 559.157 138.038 559.222 138.002 559.29 138 559.381 138.024 559.467 138.062 559.549 138.114 559.709 138.203 559.805 138.252 559.835 138.263 560.127 138.369 560.394 138.552 560.615 138.796 560.853 139.035 560.993 139.379 561 139.744 560.996 140.171 560.811 140.567 560.505 140.803 560.283 140.947 560.03 141.015 559.776 140.998 559.688 140.996 559.601 140.984 559.515 140.96 559.41 140.943 559.309 140.904 559.216 140.845ZM560.092 138.983C559.882 138.851 559.666 138.735 559.444 138.635L559.444 140.429C559.487 140.459 559.534 140.482 559.582 140.497 559.641 140.513 559.701 140.52 559.761 140.52 559.929 140.533 560.097 140.493 560.247 140.404 560.34 140.334 560.417 140.237 560.468 140.123 560.522 140.01 560.55 139.883 560.549 139.754 560.546 139.458 560.393 139.2 560.092 138.983Z" fill="#51210B" fill-rule="evenodd"/><path d="M563.974 138.3C563.957 138.378 563.947 138.46 563.946 138.541 563.946 138.575 563.946 138.629 563.946 138.704 563.946 138.779 563.938 138.83 563.938 138.867 563.938 138.985 563.938 139.163 563.924 139.399 563.909 139.635 563.909 139.811 563.909 139.931 563.909 140.051 563.909 140.158 563.925 140.34 563.941 140.523 563.941 140.66 563.941 140.752 563.942 140.819 563.921 140.882 563.884 140.928 563.848 140.975 563.799 141.001 563.748 140.999 563.694 141 563.642 140.975 563.601 140.928 563.562 140.886 563.54 140.823 563.541 140.756 563.541 140.666 563.538 140.529 563.531 140.345 563.531 140.162 563.522 140.025 563.522 139.935 563.522 139.845 563.522 139.8 563.522 139.744 563.336 139.759 563.151 139.79 562.968 139.836L562.422 139.969C562.422 140.048 562.415 140.181 562.402 140.368 562.392 140.531 562.387 140.666 562.387 140.769 562.388 140.831 562.367 140.891 562.332 140.932 562.253 141.023 562.135 141.023 562.055 140.932 562.02 140.888 562 140.826 562 140.761 562 140.639 562.008 140.454 562.026 140.208 562.044 139.961 562.05 139.778 562.05 139.654 562.05 139.53 562.05 139.261 562.05 138.948 562.05 138.635 562.059 138.397 562.059 138.24 562.058 138.176 562.078 138.115 562.114 138.071 562.151 138.024 562.201 137.999 562.252 138 562.304 137.998 562.354 138.023 562.391 138.071 562.427 138.117 562.447 138.181 562.446 138.247 562.446 138.341 562.446 138.485 562.446 138.676 562.446 138.867 562.446 139.011 562.446 139.105 562.446 139.135 562.446 139.197 562.436 139.285 562.434 139.348 562.434 139.411 562.436 139.474L562.983 139.339C563.166 139.294 563.351 139.266 563.536 139.253 563.536 139.169 563.546 138.94 563.554 138.571 563.56 138.454 563.584 138.339 563.623 138.234 563.675 138.08 563.735 138 563.803 138 563.852 137.999 563.9 138.023 563.937 138.067 563.978 138.111 564.001 138.177 564 138.247 563.993 138.266 563.984 138.284 563.974 138.3Z" fill="#51210B" fill-rule="evenodd"/></g></svg>