<svg width="36" height="31" xmlns="http://www.w3.org/2000/svg" xmlns:xlink="http://www.w3.org/1999/xlink" overflow="hidden"><g transform="translate(-591 -118)"><path d="M604.228 146C604.655 146 605 146 605 146L605 148C605 148 604.655 148 604.228 148L600.772 148C600.346 148 600 148 600 148L600 146C600 146 600.346 146 600.772 146Z" fill="#36A369" fill-rule="evenodd"/><path d="M606.062 140.455C606.574 140.597 606.99 140.712 606.99 140.712L604.924 148.171C604.924 148.171 604.508 148.056 603.996 147.914L603.286 147.718C602.774 147.576 602.358 147.461 602.358 147.461L604.424 140.001C604.424 140.001 604.839 140.116 605.352 140.258Z" fill="#36A369" fill-rule="evenodd"/><path d="M614.617 148C614.276 148 614 148 614 148L614 146C614 146 614.276 146 614.617 146L617.383 146C617.724 146 618 146 618 146L618 148C618 148 617.724 148 617.383 148Z" fill="#36A369" fill-rule="evenodd"/><path d="M614.534 147.266C614.023 147.41 613.609 147.526 613.609 147.526L611.52 140.096C611.52 140.096 611.934 139.979 612.444 139.836L613.151 139.637C613.662 139.493 614.076 139.377 614.076 139.377L616.165 146.807C616.165 146.807 615.751 146.924 615.241 147.067Z" fill="#36A369" fill-rule="evenodd"/><path d="M626 131.689C626 129.807 622.736 128.27 618.647 128.196 619.883 126.94 620.446 125.705 620.04 124.785 619.267 123.024 615.234 123.04 610.837 124.756 610.016 121.518 607.951 119.188 605.386 119.01 602.371 118.804 599.634 121.665 598.649 125.705 594.821 126.406 592 128.819 592 131.685 592 133.824 593.565 135.711 595.947 136.822 595.49 137.684 595.253 138.643 595.258 139.615 595.258 142.588 597.382 144.999 599.999 144.999 601.291 144.982 602.51 144.412 603.338 143.438 604.87 144.48 606.695 145.025 608.558 144.999 611.079 144.999 613.322 144.073 614.709 142.648 614.828 142.774 614.952 142.896 615.083 143.015 617.509 145.23 620.965 145.42 622.807 143.442 624.649 141.464 624.17 138.066 621.744 135.851 621.404 135.543 621.036 135.266 620.643 135.026 623.748 134.579 626 133.255 626 131.689Z" fill="#C34F9D" fill-rule="evenodd"/><path d="M627 131.2C627 129.389 623.833 127.914 619.865 127.84 621.063 126.633 621.608 125.446 621.217 124.562 620.465 122.867 616.553 122.89 612.276 124.535 611.478 121.421 609.475 119.175 606.987 119.01 604.062 118.815 601.405 121.561 600.45 125.446 596.737 126.118 594 128.44 594 131.2 594 133.257 595.518 135.07 597.831 136.14 597.389 136.968 597.16 137.889 597.165 138.823 597.165 141.682 599.226 143.999 601.765 143.999 603.015 143.984 604.197 143.437 605.003 142.499 606.493 143.501 608.263 144.025 610.069 143.999 612.521 143.999 614.692 143.109 616.029 141.739 616.144 141.86 616.263 141.979 616.391 142.092 618.745 144.221 622.1 144.405 623.886 142.51 625.672 140.614 625.219 137.334 622.877 135.204 622.549 134.906 622.193 134.639 621.813 134.408 624.814 133.978 627 132.705 627 131.2Z" fill="#FF7FC3" fill-rule="evenodd"/><path d="M599.5 127.5 601.5 128.5" stroke="#000000" stroke-width="0.145302" stroke-miterlimit="8" fill="none" fill-rule="evenodd"/><path d="M600.5 125.5 602.5 128.5" stroke="#000000" stroke-width="0.145302" stroke-miterlimit="8" fill="none" fill-rule="evenodd"/><path d="M607 129.5C607 131.433 605.433 133 603.5 133 601.567 133 600 131.433 600 129.5 600 127.567 601.567 126 603.5 126 605.433 126 607 127.567 607 129.5Z" fill="#FFFFFF" fill-rule="evenodd"/><path d="M604 128.999 605 128.999C605.001 129.552 604.553 130 604.001 130 603.448 130.001 603 129.553 603 129.001 603 128.448 603.447 128.001 604 128 604.451 128 604.847 128.302 604.965 128.738Z" fill-rule="evenodd"/><path d="M619.5 127.5 617.5 128.5" stroke="#000000" stroke-width="0.145302" stroke-miterlimit="8" fill="none" fill-rule="evenodd"/><path d="M618.5 125.5 616.5 128.5" stroke="#000000" stroke-width="0.145302" stroke-miterlimit="8" fill="none" fill-rule="evenodd"/><path d="M618 129.5C618 131.433 616.433 133 614.5 133 612.567 133 611 131.433 611 129.5 611 127.567 612.567 126 614.5 126 616.433 126 618 127.567 618 129.5Z" fill="#FFFFFF" fill-rule="evenodd"/><path d="M614 128.999 615 128.999C615.001 129.552 614.553 130 614.001 130 613.448 130.001 613 129.553 613 129.001 613 128.448 613.447 128.001 614 128 614.451 128 614.847 128.302 614.965 128.738Z" fill-rule="evenodd"/><path d="M609.69 136.895 610.983 134.256C611.027 134.164 610.982 134.056 610.882 134.016 610.858 134.006 610.831 134 610.805 134L608.195 134C608.086 134.001 607.998 134.084 608 134.185 608 134.21 608.006 134.234 608.017 134.256L609.335 136.895C609.38 136.986 609.496 137.025 609.594 136.983 609.636 136.965 609.67 136.934 609.69 136.895Z" fill="#9E005D" fill-rule="evenodd"/><path d="M605.752 138.575C605.721 138.574 605.69 138.568 605.66 138.559 605.474 138.504 605.281 138.479 605.087 138.483 605.013 138.483 604.927 138.483 604.831 138.497 604.735 138.511 604.627 138.521 604.51 138.541 604.51 138.77 604.51 138.965 604.51 139.13 604.659 139.091 604.814 139.068 604.968 139.064 605.165 139.062 605.362 139.073 605.558 139.096 605.685 139.092 605.79 139.19 605.794 139.314 605.794 139.322 605.794 139.33 605.793 139.337 605.795 139.403 605.768 139.467 605.719 139.512 605.671 139.558 605.605 139.584 605.537 139.583 605.474 139.583 605.378 139.583 605.253 139.566 605.128 139.55 605.032 139.552 604.968 139.552 604.813 139.564 604.659 139.591 604.51 139.635L604.51 140.757C604.51 140.824 604.48 140.888 604.426 140.93 604.373 140.975 604.306 141 604.236 141 604.172 141.002 604.11 140.977 604.066 140.932 604.021 140.884 603.997 140.821 604 140.757L604 138.7C604 138.653 604 138.583 604 138.489 604 138.394 604 138.326 604 138.288 603.999 138.222 604.026 138.158 604.074 138.113 604.122 138.066 604.187 138.041 604.254 138.044 604.297 138.043 604.339 138.052 604.377 138.07 604.516 138.046 604.647 138.028 604.764 138.018 604.87 138.007 604.977 138.001 605.083 138 605.26 138.006 605.435 138.034 605.605 138.084 605.869 138.155 606 138.237 606 138.33 605.999 138.466 605.887 138.577 605.748 138.579Z" fill="#5F002B" fill-rule="evenodd"/><path d="M608.673 141C608.552 141 608.43 140.872 608.305 140.631 608.218 140.455 608.147 140.275 608.095 140.089 607.984 140.103 607.797 140.118 607.538 140.132 607.278 140.145 607.11 140.165 606.98 140.186 606.91 140.331 606.786 140.55 606.612 140.843 606.556 140.932 606.447 140.987 606.329 140.986 606.245 140.987 606.164 140.961 606.101 140.913 606.035 140.866 605.998 140.796 606 140.723 606.079 140.481 606.192 140.25 606.337 140.033 606.316 139.998 606.306 139.957 606.309 139.917 606.309 139.854 606.389 139.805 606.532 139.769 606.749 139.443 606.992 139.104 607.26 138.754 607.647 138.251 607.885 138 607.971 138 608.142 138 608.253 138.087 608.311 138.264 608.368 138.441 608.391 138.62 608.456 138.904 608.549 139.286 608.666 139.723 608.801 140.215 608.833 140.304 608.872 140.391 608.917 140.476 608.962 140.557 608.99 140.644 609 140.734 609.002 140.808 608.965 140.878 608.899 140.926 608.839 140.977 608.757 141.003 608.673 141ZM607.812 138.96 607.317 139.684C607.424 139.668 607.531 139.657 607.639 139.653 607.812 139.653 607.919 139.637 607.966 139.631 607.927 139.459 607.877 139.235 607.812 138.96Z" fill="#5F002B" fill-rule="evenodd"/><path d="M610.836 140.761C610.616 140.843 610.387 140.9 610.154 140.932 609.924 140.973 609.692 140.995 609.459 141 609.152 141 609 140.87 609 140.606 609 140.627 609.013 140.433 609.036 140.024 609.069 139.494 609.086 138.902 609.086 138.252 609.084 138.185 609.111 138.121 609.16 138.074 609.208 138.025 609.276 137.998 609.345 138 609.416 137.998 609.483 138.025 609.533 138.074 609.582 138.12 609.61 138.185 609.608 138.252 609.608 138.904 609.592 139.504 609.558 140.053 609.545 140.152 609.535 140.301 609.522 140.503 609.909 140.485 610.293 140.415 610.661 140.297 610.688 140.289 610.715 140.284 610.743 140.284 610.817 140.282 610.888 140.314 610.935 140.369 610.977 140.416 611 140.476 611 140.538 610.999 140.639 610.934 140.728 610.836 140.761Z" fill="#5F002B" fill-rule="evenodd"/><path d="M611.326 140.844C611.239 140.844 611.155 140.817 611.095 140.769 611.033 140.725 610.999 140.663 611 140.598 611 140.476 611.008 140.296 611.024 140.056 611.024 139.815 611.045 139.634 611.045 139.514 611.045 139.395 611.045 139.179 611.045 138.905 611.045 138.631 611.045 138.436 611.045 138.296 611.07 138.14 611.231 138.017 611.434 138 611.569 138.024 611.699 138.062 611.82 138.114 612.062 138.201 612.207 138.252 612.252 138.262 612.689 138.368 613.089 138.55 613.422 138.794 613.778 139.033 613.988 139.376 614 139.74 614 139.948 613.931 140.152 613.8 140.335 613.672 140.521 613.485 140.679 613.256 140.795 612.924 140.942 612.545 141.013 612.162 140.998 612.03 140.996 611.899 140.983 611.771 140.96 611.615 140.941 611.465 140.902 611.326 140.844ZM612.641 138.987C612.327 138.854 612.002 138.738 611.668 138.639L611.668 140.428C611.732 140.459 611.802 140.482 611.876 140.495 611.962 140.511 612.05 140.518 612.138 140.517 612.389 140.532 612.639 140.495 612.864 140.41 613.004 140.34 613.119 140.244 613.196 140.129 613.276 140.017 613.318 139.891 613.319 139.762 613.319 139.464 613.093 139.204 612.641 138.987Z" fill="#5F002B" fill-rule="evenodd"/><path d="M615.965 138.304C615.947 138.382 615.937 138.463 615.936 138.544 615.938 138.598 615.938 138.652 615.936 138.705 615.936 138.779 615.936 138.831 615.936 138.867 615.936 138.987 615.936 139.163 615.923 139.396 615.91 139.629 615.908 139.816 615.908 139.925 615.908 140.034 615.908 140.154 615.923 140.345 615.937 140.536 615.939 140.662 615.939 140.754 615.94 140.82 615.92 140.884 615.883 140.929 615.846 140.976 615.796 141.002 615.744 141 615.691 141.001 615.638 140.976 615.598 140.929 615.558 140.888 615.536 140.825 615.537 140.759 615.537 140.669 615.534 140.533 615.527 140.349 615.527 140.169 615.527 140.032 615.527 139.94 615.527 139.848 615.527 139.807 615.527 139.753 615.341 139.767 615.156 139.797 614.973 139.843L614.424 139.976C614.424 140.055 614.415 140.186 614.404 140.372 614.392 140.559 614.389 140.668 614.389 140.771 614.39 140.833 614.37 140.892 614.334 140.933 614.296 140.978 614.246 141.002 614.195 141 614.143 141.002 614.093 140.977 614.056 140.931 614.02 140.887 613.999 140.825 614 140.761 614 140.639 614.01 140.454 614.026 140.211 614.042 139.967 614.05 139.791 614.05 139.661 614.05 139.503 614.05 139.27 614.06 138.957 614.069 138.645 614.06 138.409 614.06 138.254 614.059 138.189 614.079 138.128 614.116 138.084 614.194 137.99 614.314 137.99 614.392 138.084 614.43 138.129 614.45 138.192 614.449 138.258 614.449 138.353 614.449 138.495 614.44 138.678 614.433 138.861 614.44 139.01 614.44 139.098 614.44 139.129 614.44 139.19 614.431 139.279 614.428 139.342 614.428 139.405 614.431 139.468L614.979 139.333C615.162 139.287 615.348 139.259 615.534 139.247 615.534 139.161 615.545 138.936 615.553 138.567 615.559 138.451 615.581 138.338 615.621 138.233 615.674 138.078 615.735 138 615.802 138 615.852 138 615.899 138.024 615.936 138.067 615.977 138.11 616.001 138.175 616 138.243 615.991 138.266 615.979 138.286 615.965 138.304Z" fill="#5F002B" fill-rule="evenodd"/></g></svg>