<svg width="17" height="33" xmlns="http://www.w3.org/2000/svg" xmlns:xlink="http://www.w3.org/1999/xlink" overflow="hidden"><g transform="translate(-644 -117)"><path d="M650.366 142 650.366 147.765 647 149 650.366 149 652 149 652 142 650.366 142Z" fill="#FF7FA7" fill-rule="evenodd"/><path d="M656.308 142 656.308 147.765 659 149 656.308 149 655 149 655 142 656.308 142Z" fill="#FF7FA7" fill-rule="evenodd"/><path d="M655.399 137.856C656.595 136.489 657.242 134.729 657.216 132.914 657.233 131.313 656.733 129.748 655.791 128.451 657.147 127.356 657.939 125.712 657.951 123.971 657.951 120.677 655.107 118 651.598 118 648.09 118 645.245 120.677 645.245 123.971 645.255 125.657 645.999 127.255 647.283 128.35 646.292 129.664 645.764 131.269 645.782 132.914 645.757 134.729 646.405 136.489 647.601 137.856 646.021 138.58 645 139.734 645 141.033 645 143.223 647.91 145 651.499 145 655.088 145 658 143.223 658 141.033 658 139.734 656.977 138.58 655.399 137.856Z" fill="#2E3192" fill-rule="evenodd"/><path d="M657.399 137.856C658.596 136.489 659.244 134.729 659.218 132.914 659.234 131.312 658.734 129.747 657.791 128.451 659.147 127.356 659.94 125.712 659.951 123.971 659.951 120.677 657.106 118 653.597 118 650.088 118 647.243 120.677 647.243 123.971 647.253 125.657 647.997 127.256 649.283 128.35 648.292 129.664 647.764 131.269 647.782 132.914 647.757 134.729 648.404 136.489 649.599 137.856 648.021 138.58 647 139.734 647 141.033 647 143.223 649.909 145 653.5 145 657.091 145 660 143.223 660 141.033 660 139.734 658.979 138.58 657.399 137.856Z" fill="#7BB6FF" fill-rule="evenodd"/><path d="M655.569 118.984C655.67 119.032 655.752 119.07 655.752 119.07L654.449 121.833C654.449 121.833 654.367 121.794 654.266 121.746L654.125 121.68C654.025 121.632 653.943 121.594 653.943 121.594L655.246 118.832C655.246 118.832 655.328 118.87 655.429 118.918Z" fill-rule="evenodd"/><path d="M651.533 118.871C651.632 118.819 651.712 118.777 651.712 118.777L653.125 121.485C653.125 121.485 653.045 121.527 652.946 121.578L652.808 121.65C652.71 121.702 652.629 121.744 652.629 121.744L651.216 119.036C651.216 119.036 651.297 118.994 651.395 118.943Z" fill-rule="evenodd"/><path d="M653.639 118C653.839 118 654 118 654 118L654 122C654 122 653.839 122 653.639 122L653.361 122C653.161 122 653 122 653 122L653 118C653 118 653.161 118 653.361 118Z" fill-rule="evenodd"/><path d="M656 123.5C656 124.881 654.881 126 653.5 126 652.119 126 651 124.881 651 123.5 651 122.119 652.119 121 653.5 121 654.881 121 656 122.119 656 123.5Z" fill="#FFFFFF" fill-rule="evenodd"/><path d="M655 123.5C655 124.328 654.328 125 653.5 125 652.672 125 652 124.328 652 123.5 652 122.672 652.672 122 653.5 122 654.328 122 655 122.672 655 123.5Z" fill-rule="evenodd"/><path d="M652 128 656 128C656 128 655.834 129.962 654 130 652.166 130.037 652 128 652 128Z" fill="#FF628B" fill-rule="evenodd"/><path d="M651.745 127.578C651.714 127.577 651.682 127.572 651.652 127.562 651.468 127.507 651.275 127.482 651.082 127.487 650.997 127.487 650.912 127.492 650.827 127.501 650.732 127.51 650.625 127.525 650.508 127.544 650.508 127.772 650.508 127.97 650.508 128.133 650.657 128.094 650.81 128.072 650.965 128.067 651.161 128.066 651.357 128.076 651.551 128.097 651.68 128.096 651.785 128.197 651.786 128.324 651.786 128.329 651.786 128.335 651.786 128.34 651.787 128.406 651.76 128.469 651.711 128.514 651.662 128.56 651.597 128.585 651.529 128.584 651.466 128.584 651.373 128.584 651.248 128.57 651.123 128.556 651.028 128.556 650.965 128.556 650.81 128.566 650.656 128.594 650.508 128.638L650.508 129.759C650.508 129.825 650.478 129.889 650.425 129.93 650.373 129.976 650.306 130.001 650.237 130 650.173 130.003 650.111 129.978 650.067 129.932 650.022 129.885 649.998 129.823 650 129.759L650 127.71C650 127.664 650 127.592 650 127.499 650 127.405 650 127.335 650 127.289 649.998 127.223 650.024 127.16 650.071 127.114 650.119 127.067 650.185 127.041 650.253 127.044 650.294 127.043 650.335 127.052 650.372 127.07 650.514 127.046 650.641 127.028 650.759 127.018 650.864 127.007 650.97 127.001 651.076 127 651.252 127.006 651.427 127.034 651.596 127.084 651.859 127.155 651.993 127.237 652 127.329 652 127.395 651.973 127.459 651.925 127.505 651.879 127.553 651.813 127.58 651.745 127.578Z" fill="#1B144B" fill-rule="evenodd"/><path d="M652.324 129.836C652.237 129.838 652.153 129.812 652.091 129.764 652.031 129.718 651.998 129.655 652 129.59 652 129.471 652 129.289 652.021 129.049 652.042 128.809 652.045 128.627 652.045 128.506 652.045 128.385 652.045 128.171 652.045 127.9 652.045 127.63 652.045 127.432 652.045 127.295 652.067 127.138 652.228 127.015 652.431 127 652.568 127.022 652.699 127.059 652.821 127.111 653.061 127.2 653.205 127.25 653.252 127.26 653.69 127.367 654.09 127.549 654.423 127.794 654.779 128.032 654.989 128.376 655 128.74 655.001 128.949 654.932 129.153 654.802 129.336 654.674 129.523 654.485 129.681 654.255 129.796 653.924 129.943 653.545 130.014 653.163 129.998 653.03 129.996 652.898 129.984 652.768 129.959 652.612 129.94 652.461 129.898 652.324 129.837ZM653.631 127.977C653.317 127.845 652.992 127.73 652.659 127.632L652.659 129.42C652.723 129.452 652.794 129.475 652.868 129.489 652.954 129.504 653.041 129.511 653.129 129.511 653.379 129.525 653.63 129.488 653.856 129.402 653.995 129.333 654.108 129.237 654.185 129.124 654.266 129.01 654.308 128.883 654.307 128.754 654.318 128.456 654.093 128.197 653.639 127.977Z" fill="#1B144B" fill-rule="evenodd"/><path d="M657.95 127.308C657.923 127.385 657.909 127.466 657.907 127.546 657.91 127.6 657.91 127.653 657.907 127.706 657.907 127.779 657.907 127.833 657.907 127.868 657.907 127.987 657.907 128.163 657.885 128.396 657.864 128.629 657.864 128.812 657.864 128.924 657.864 129.036 657.864 129.15 657.888 129.339 657.912 129.529 657.912 129.655 657.912 129.755 657.913 129.821 657.882 129.884 657.828 129.93 657.772 129.976 657.697 130.002 657.619 130 657.539 130.002 657.461 129.976 657.401 129.93 657.34 129.889 657.306 129.826 657.308 129.759 657.308 129.67 657.308 129.533 657.308 129.344 657.308 129.155 657.293 129.026 657.293 128.928 657.293 128.831 657.293 128.795 657.293 128.739 657.013 128.754 656.735 128.785 656.459 128.831L655.635 128.963C655.635 129.042 655.635 129.171 655.604 129.358 655.573 129.545 655.582 129.653 655.582 129.755 655.584 129.817 655.555 129.876 655.501 129.917 655.443 129.961 655.369 129.985 655.292 129.983 655.215 129.986 655.14 129.961 655.084 129.915 655.029 129.871 654.998 129.809 655 129.745 655 129.622 655.012 129.439 655.038 129.196 655.065 128.953 655.074 128.781 655.074 128.648 655.074 128.492 655.074 128.259 655.074 127.947 655.074 127.636 655.089 127.403 655.089 127.247 655.087 127.183 655.118 127.12 655.173 127.077 655.229 127.031 655.304 127.006 655.381 127.008 655.459 127.008 655.533 127.033 655.59 127.079 655.644 127.125 655.674 127.188 655.673 127.254 655.673 127.347 655.673 127.488 655.673 127.669 655.673 127.85 655.661 128.001 655.661 128.095 655.659 128.155 655.654 128.214 655.645 128.274 655.641 128.337 655.641 128.4 655.645 128.463L656.469 128.328C656.744 128.282 657.023 128.253 657.303 128.242 657.303 128.157 657.317 127.933 657.329 127.565 657.337 127.45 657.371 127.336 657.43 127.233 657.511 127.077 657.602 127 657.703 127 657.777 126.999 657.849 127.023 657.904 127.066 657.966 127.109 658.002 127.175 658 127.243 657.989 127.267 657.972 127.289 657.95 127.308Z" fill="#1B144B" fill-rule="evenodd"/></g></svg>