<svg width="34" height="29" xmlns="http://www.w3.org/2000/svg" xmlns:xlink="http://www.w3.org/1999/xlink" overflow="hidden"><defs><clipPath id="clip0"><rect x="677" y="119" width="34" height="29"/></clipPath></defs><g clip-path="url(#clip0)" transform="translate(-677 -119)"><path d="M696.084 147C695.485 147 695 147 695 147L695 138C695 138 695.485 138 696.084 138L696.915 138C697.514 138 698 138 698 138L698 147C698 147 697.514 147 696.915 147Z" fill="#F79500" fill-rule="evenodd"/><path d="M696.313 147C695.588 147 695 147 695 147L695 144C695 144 695.588 144 696.313 144L699.687 144C700.412 144 701 144 701 144L701 147C701 147 700.412 147 699.687 147Z" fill="#F79500" fill-rule="evenodd"/><path d="M692.916 138C693.515 138 694 138 694 138L694 147C694 147 693.515 147 692.916 147L692.085 147C691.486 147 691 147 691 147L691 138C691 138 691.486 138 692.085 138Z" fill="#F79500" fill-rule="evenodd"/><path d="M692.906 144C693.51 144 694 144 694 144L694 147C694 147 693.51 147 692.906 147L690.094 147C689.49 147 689 147 689 147L689 144C689 144 689.49 144 690.094 144Z" fill="#F79500" fill-rule="evenodd"/><path d="M705.953 126.442 699.54 127.978C698.84 128.123 698.176 127.548 698.057 126.692 698.056 126.683 698.055 126.674 698.053 126.665L698.024 126.468C697.888 125.598 698.341 124.753 699.048 124.558L705.459 123.023C706.161 122.877 706.826 123.453 706.945 124.31 706.946 124.319 706.947 124.327 706.948 124.336L706.975 124.533C707.113 125.402 706.66 126.248 705.953 126.442Z" fill="#F14624" fill-rule="evenodd"/><path d="M694.492 127.271 685.889 128C685.416 128.018 685.019 127.638 685.001 127.15 684.999 127.111 685 127.072 685.004 127.034 685.307 122.943 689.102 119.434 693.91 119.039 699.108 118.598 703.646 121.938 704 126.446Z" fill="#F14624" fill-rule="evenodd"/><path d="M700.319 126C702.904 126 705 126 705 126L705 139C705 139 702.904 139 700.319 139L682.681 139C680.096 139 678 139 678 139L678 126C678 126 680.096 126 682.681 126Z" fill="#005F2B" fill-rule="evenodd"/><path d="M706.309 126C708.9 126 711 126 711 126L711 139C711 139 708.9 139 706.309 139L685.691 139C683.1 139 681 139 681 139L681 126C681 126 683.1 126 685.691 126Z" fill="#25CE52" fill-rule="evenodd"/><path d="M694 130.5C694 132.433 692.433 134 690.5 134 688.567 134 687 132.433 687 130.5 687 128.567 688.567 127 690.5 127 692.433 127 694 128.567 694 130.5Z" fill="#FFFFFF" fill-rule="evenodd"/><path d="M692 130C692 130.552 691.776 131 691.5 131 691.224 131 691 130.552 691 130 691 129.447 691.224 129 691.5 129 691.776 129 692 129.447 692 130Z" fill-rule="evenodd"/><path d="M686.5 128.5C686.566 127.32 687.909 126.429 689.5 126.505" stroke="#000000" stroke-width="0.145302" stroke-miterlimit="8" fill="none" fill-rule="evenodd"/><path d="M703 130.5C703 132.433 701.433 134 699.5 134 697.567 134 696 132.433 696 130.5 696 128.567 697.567 127 699.5 127 701.433 127 703 128.567 703 130.5Z" fill="#FFFFFF" fill-rule="evenodd"/><path d="M702 130C702 130.553 701.552 131 701 131 700.448 131 700 130.553 700 130 700 129.448 700.448 129 701 129 701.552 129 702 129.448 702 130Z" fill-rule="evenodd"/><path d="M704.5 128.5C704.223 127.121 702.434 126.253 700.5 126.563" stroke="#000000" stroke-width="0.145302" stroke-miterlimit="8" fill="none" fill-rule="evenodd"/><path d="M692.104 135 697.922 135C697.922 135 698.757 137.955 694.959 138 691.16 138.045 692.104 135 692.104 135Z" fill-rule="evenodd"/><path d="M696.585 137.057C695.547 137.363 696.206 138 696.206 138 696.544 137.965 696.872 137.902 697.181 137.81 697.497 137.714 697.776 137.578 698 137.412 698 137.412 697.382 136.817 696.585 137.057Z" fill="#C1272D" fill-rule="evenodd"/><path d="M695.468 138.001C694.908 138.045 695.007 138.984 695.007 138.984 695.174 139.006 695.342 139.006 695.51 138.984 695.682 138.958 696 138.856 696 138.856 696 138.856 695.899 137.968 695.468 138.001Z" fill="#C1272D" fill-rule="evenodd"/><path d="M690.957 122.199C690.939 122.25 690.929 122.303 690.928 122.357 690.93 122.393 690.93 122.43 690.928 122.466 690.928 122.516 690.928 122.552 690.928 122.575 690.928 122.656 690.928 122.773 690.914 122.93 690.9 123.087 690.9 123.206 690.9 123.286 690.9 123.365 690.9 123.438 690.916 123.56 690.932 123.683 690.932 123.772 690.932 123.835 690.932 123.879 690.912 123.922 690.875 123.952 690.838 123.983 690.788 123.999 690.737 123.998 690.684 123.999 690.632 123.983 690.592 123.952 690.553 123.924 690.531 123.882 690.532 123.838 690.532 123.776 690.532 123.684 690.522 123.564 690.512 123.443 690.522 123.35 690.522 123.289 690.522 123.229 690.522 123.2 690.522 123.161 690.336 123.172 690.151 123.193 689.969 123.224L689.422 123.312C689.422 123.365 689.422 123.455 689.402 123.578 689.382 123.7 689.386 123.776 689.386 123.847 689.387 123.888 689.367 123.928 689.331 123.955 689.252 124.015 689.135 124.015 689.055 123.955 689.019 123.927 688.999 123.886 689 123.843 689 123.76 689 123.636 689.026 123.472 689.051 123.308 689.049 123.186 689.049 123.103 689.049 123.02 689.049 122.842 689.049 122.632 689.049 122.421 689.049 122.264 689.049 122.161 689.048 122.117 689.068 122.076 689.104 122.047 689.142 122.016 689.192 121.999 689.243 122 689.294 121.999 689.343 122.016 689.38 122.047 689.417 122.077 689.438 122.12 689.437 122.164 689.437 122.228 689.437 122.323 689.437 122.451 689.437 122.578 689.437 122.673 689.437 122.737 689.44 122.777 689.44 122.817 689.437 122.858 689.435 122.9 689.435 122.942 689.437 122.984L689.984 122.894C690.167 122.863 690.352 122.843 690.537 122.835 690.537 122.778 690.537 122.626 690.555 122.38 690.56 122.302 690.583 122.226 690.622 122.155 690.675 122.052 690.735 122 690.802 122 690.852 121.999 690.9 122.014 690.938 122.043 690.978 122.073 691.001 122.117 691 122.164 690.988 122.178 690.974 122.189 690.957 122.199Z" fill="#FBD53B" fill-rule="evenodd"/><path d="M692.973 123.24C692.841 123.427 692.634 123.72 692.347 124.122 692.193 124.336 692.076 124.515 691.996 124.656 691.972 124.707 691.932 124.784 691.877 124.884 691.843 124.952 691.75 124.999 691.645 125 691.578 125.001 691.513 124.984 691.463 124.954 691.413 124.926 691.385 124.884 691.386 124.84 691.47 124.603 691.599 124.374 691.77 124.159 691.638 123.981 691.426 123.718 691.139 123.37L691.05 123.274C691.02 123.243 691.003 123.207 691 123.17 691.001 123.125 691.03 123.083 691.08 123.053 691.127 123.021 691.192 123.003 691.259 123.003 691.331 123.001 691.4 123.023 691.443 123.063 691.672 123.285 691.873 123.52 692.044 123.766 692.173 123.572 692.25 123.453 692.278 123.414 692.363 123.291 692.447 123.182 692.527 123.089 692.57 123.035 692.652 123.001 692.741 123 692.808 122.999 692.873 123.016 692.92 123.048 692.972 123.075 693.001 123.117 693 123.162 692.999 123.189 692.99 123.215 692.973 123.24Z" fill="#FBD53B" fill-rule="evenodd"/><path d="M694.457 122.717C694.473 122.44 694.493 122.249 694.514 122.143 694.518 122.062 694.622 121.998 694.746 122 694.75 122 694.753 122 694.757 122 694.823 121.999 694.888 122.016 694.934 122.047 694.977 122.079 695.001 122.119 695 122.162 695 122.281 694.985 122.457 694.959 122.694 694.934 122.93 694.916 123.107 694.916 123.226 694.908 123.42 694.922 123.615 694.959 123.808 694.96 123.82 694.96 123.832 694.959 123.844 694.962 123.886 694.934 123.928 694.885 123.956 694.838 123.984 694.777 124 694.714 124 694.627 124.002 694.546 123.97 694.509 123.919 694.431 123.951 694.344 123.973 694.253 123.985 694.161 123.995 694.067 124 693.974 124 693.718 124.007 693.468 123.946 693.28 123.832 693.094 123.713 692.993 123.549 693.001 123.379 692.988 123.185 693.089 122.995 693.283 122.848 693.473 122.713 693.743 122.64 694.022 122.647 694.109 122.645 694.195 122.652 694.278 122.667 694.342 122.677 694.403 122.694 694.457 122.717ZM694.419 123.102C694.383 123.055 694.328 123.015 694.261 122.987 694.188 122.962 694.107 122.949 694.025 122.95 693.871 122.942 693.719 122.981 693.613 123.055 693.51 123.144 693.461 123.255 693.475 123.367 693.474 123.452 693.529 123.534 693.626 123.592 693.716 123.653 693.841 123.687 693.971 123.686 694.045 123.688 694.119 123.681 694.189 123.664 694.249 123.642 694.306 123.616 694.358 123.587 694.38 123.575 694.401 123.562 694.419 123.548 694.404 123.51 694.404 123.36 694.406 123.095Z" fill="#FBD53B" fill-rule="evenodd"/><path d="M696.782 124C696.7 124 696.619 123.916 696.536 123.754 696.478 123.636 696.432 123.514 696.397 123.39 696.321 123.399 696.198 123.408 696.024 123.419 695.9 123.424 695.777 123.435 695.654 123.453 695.605 123.55 695.525 123.696 695.406 123.89 695.369 123.949 695.298 123.985 695.22 123.985 695.164 123.986 695.11 123.968 695.068 123.936 695.024 123.905 694.999 123.859 695 123.81 695.052 123.65 695.128 123.496 695.224 123.351 695.21 123.328 695.204 123.301 695.205 123.275 695.205 123.233 695.26 123.2 695.356 123.176 695.502 122.96 695.662 122.734 695.84 122.501 696.096 122.167 696.264 122 696.314 122 696.426 122 696.503 122.058 696.541 122.182 696.579 122.306 696.594 122.417 696.636 122.606 696.7 122.86 696.776 123.153 696.867 123.477 696.887 123.539 696.913 123.6 696.945 123.659 696.975 123.713 696.993 123.771 697 123.83 697.001 123.879 696.976 123.926 696.932 123.958 696.89 123.988 696.836 124.003 696.782 124ZM696.208 122.643 695.878 123.126C695.948 123.114 696.019 123.107 696.09 123.106L696.302 123.091C696.282 122.976 696.251 122.826 696.208 122.643Z" fill="#FBD53B" fill-rule="evenodd"/><path d="M698.682 123.892C698.509 123.97 698.327 124.006 698.144 123.999 698.107 123.998 698.071 123.976 698.046 123.938 698.019 123.904 698.003 123.856 698.002 123.806L698.002 122.499 698.002 122.33C697.999 122.276 697.999 122.222 698.002 122.169 698.011 122.092 698.065 122.045 698.163 122.028 698.239 122.006 698.316 121.997 698.393 122.001 698.512 122.003 698.628 122.056 698.724 122.152 698.837 122.245 698.907 122.41 698.908 122.589 698.91 122.672 698.897 122.754 698.871 122.829 698.843 122.894 698.808 122.951 698.765 122.998 698.826 123.039 698.88 123.096 698.922 123.168 698.969 123.24 698.997 123.333 699 123.429 698.993 123.555 698.944 123.669 698.867 123.74 698.812 123.804 698.75 123.855 698.682 123.892ZM698.393 122.338C698.314 122.338 698.267 122.338 698.251 122.338L698.251 122.858C698.292 122.866 698.335 122.869 698.377 122.866 698.563 122.847 698.656 122.754 698.656 122.589 698.65 122.519 698.62 122.455 698.574 122.42 698.522 122.367 698.458 122.338 698.393 122.338ZM698.5 123.21C698.445 123.21 698.362 123.21 698.248 123.202L698.248 123.662C698.364 123.652 698.478 123.625 698.589 123.58 698.695 123.539 698.748 123.495 698.747 123.448 698.747 123.385 698.712 123.329 698.644 123.278 698.6 123.243 698.551 123.22 698.5 123.21Z" fill="#FBD53B" fill-rule="evenodd"/><path d="M700.891 122.601C700.839 122.604 700.792 122.554 700.776 122.478 700.77 122.45 700.758 122.426 700.743 122.409 700.721 122.401 700.698 122.397 700.676 122.4 700.605 122.4 700.524 122.484 700.432 122.652 700.319 122.831 700.25 123.064 700.238 123.313 700.237 123.402 700.259 123.488 700.299 123.552 700.336 123.616 700.39 123.653 700.446 123.653 700.505 123.652 700.563 123.629 700.614 123.586 700.635 123.569 700.678 123.527 700.743 123.46 700.771 123.425 700.805 123.402 700.841 123.392 700.904 123.392 700.956 123.472 700.956 123.569 700.955 123.621 700.939 123.669 700.912 123.701 700.784 123.885 700.617 123.991 700.442 124 700.321 124.003 700.205 123.926 700.124 123.789 700.043 123.661 699.999 123.489 700 123.311 700.01 122.98 700.097 122.665 700.246 122.425 700.344 122.207 700.5 122.067 700.672 122.044L700.739 122.044C700.759 122.044 700.776 122.044 700.792 122.055 700.816 122.019 700.848 121.999 700.881 122 700.938 122 700.972 122.051 700.986 122.151 700.996 122.234 701.001 122.319 701 122.404 701 122.446 700.992 122.487 700.976 122.521 700.958 122.567 700.927 122.597 700.891 122.601Z" fill="#FBD53B" fill-rule="evenodd"/></g></svg>