<svg width="141" height="61" xmlns="http://www.w3.org/2000/svg" xmlns:xlink="http://www.w3.org/1999/xlink" overflow="hidden"><defs><clipPath id="clip0"><rect x="119" y="401" width="141" height="61"/></clipPath></defs><g clip-path="url(#clip0)" transform="translate(-119 -401)"><path d="M256.063 402C257.685 402 259 402 259 402L259 408C259 408 257.685 408 256.063 408L122.937 408C121.315 408 120 408 120 408L120 402C120 402 121.315 402 122.937 402Z" fill="#FFCE6A" fill-rule="evenodd"/><path d="M138.853 441 130.009 440.953C127.988 440.942 126.127 439.8 125.126 437.957L120.744 429.893C119.743 428.052 119.753 425.79 120.771 423.958L125.232 415.942C126.252 414.109 128.126 412.988 130.148 413L138.99 413.048C141.011 413.057 142.873 414.198 143.874 416.041L148.257 424.104C149.258 425.946 149.247 428.209 148.228 430.04L143.767 438.058C142.748 439.89 140.874 441.012 138.853 441Z" fill="#FFCE6A" fill-rule="evenodd"/><path d="M154.795 448.706 150.759 444.108C148.79 441.866 148.438 438.565 149.885 435.932L152.858 430.531C154.306 427.901 157.222 426.534 160.084 427.144L165.957 428.404C168.822 429.019 170.979 431.476 171.3 434.489L171.959 440.667C172.282 443.678 170.698 446.563 168.036 447.814L162.57 450.381C159.901 451.628 156.762 450.951 154.795 448.706Z" fill="#FFA16F" fill-rule="evenodd"/><path d="M184.651 437.084 176.999 431.581C175.299 430.361 174.588 428.194 175.239 426.218L178.161 417.314C178.809 415.338 180.67 414 182.77 414L192.23 414C194.33 414 196.191 415.338 196.839 417.314L199.762 426.218C200.412 428.194 199.701 430.361 198.001 431.581L190.349 437.084C188.65 438.306 186.35 438.306 184.651 437.084Z" fill="#FFA16F" fill-rule="evenodd"/><path d="M194.366 454.547 181.663 461.607C180.14 462.452 178.226 461.89 177.389 460.352 177.124 459.864 176.99 459.314 177.001 458.758L177.301 444.126C177.33 442.371 178.762 440.971 180.5 441.001 181.062 441.01 181.61 441.171 182.089 441.466L194.487 449.045C195.973 449.957 196.445 451.912 195.542 453.411 195.255 453.887 194.85 454.279 194.366 454.547Z" fill="#FFCE6A" fill-rule="evenodd"/><path d="M236.691 449.969 228.473 448.725C226.894 448.485 225.8 446.962 226.031 445.324 226.104 444.802 226.309 444.31 226.624 443.897L231.778 437.138C232.768 435.839 234.586 435.62 235.838 436.647 236.236 436.974 236.544 437.404 236.731 437.893L239.798 445.902C240.383 447.443 239.654 449.184 238.168 449.791 237.699 449.983 237.19 450.044 236.691 449.969Z" fill="#FFCE6A" fill-rule="evenodd"/><path d="M231.89 430.384 227.319 436.032C226.332 437.251 224.83 437.964 223.24 437.97L215.871 438C214.28 438.011 212.77 437.312 211.77 436.101L207.152 430.488C206.156 429.275 205.779 427.686 206.126 426.169L207.736 419.142C208.083 417.627 209.115 416.347 210.542 415.665L217.168 412.515C218.598 411.835 220.266 411.828 221.701 412.496L228.353 415.598C229.788 416.265 230.834 417.537 231.193 419.051L232.861 426.068C233.224 427.576 232.867 429.164 231.89 430.384Z" fill="#FFCE6A" fill-rule="evenodd"/><path d="M248.762 435.993 240.905 435.562C238.68 435.442 236.784 433.877 236.209 431.685L234.176 423.948C233.599 421.756 234.474 419.436 236.344 418.202L242.945 413.843C244.814 412.609 247.251 412.74 248.982 414.168L255.096 419.212C256.827 420.64 257.457 423.041 256.657 425.158L253.835 432.633C253.039 434.755 250.99 436.112 248.762 435.993Z" fill="#FFA16F" fill-rule="evenodd"/><path d="M173 417.5C173 421.09 168.075 424 162 424 155.925 424 151 421.09 151 417.5 151 413.91 155.925 411 162 411 168.075 411 173 413.91 173 417.5Z" fill="#FFA16F" fill-rule="evenodd"/><path d="M210 440C210 443.866 206.866 447 203 447 199.134 447 196 443.866 196 440 196 436.134 199.134 433 203 433 206.866 433 210 436.134 210 440Z" fill="#FFA16F" fill-rule="evenodd"/><path d="M207 416C207 418.761 205.209 421 203 421 200.791 421 199 418.761 199 416 199 413.239 200.791 411 203 411 205.209 411 207 413.239 207 416Z" fill="#FFA16F" fill-rule="evenodd"/></g></svg>