<svg width="81" height="44" xmlns="http://www.w3.org/2000/svg" xmlns:xlink="http://www.w3.org/1999/xlink" overflow="hidden"><g transform="translate(-121 -329)"><path d="M128.496 333.931 128.496 333.931C128.309 333.931 128.146 333.799 128.099 333.61 127.458 330.724 126.649 329 125.768 329 123.688 329 122 338.627 122 350.5 122 350.992 122 351.482 122 351.966 122 352.297 122 352.631 122 352.965 121.999 354.715 122.082 356.464 122.249 358.206 122.793 366.273 124.164 372 125.768 372 125.87 372 125.971 371.978 126.064 371.934 126.555 371.69 127.116 371.653 127.632 371.831 127.909 371.942 128.203 371.999 128.5 372 132.09 372 135 363.477 135 352.96 135 342.443 132.086 333.931 128.496 333.931Z" fill="#6FE1CD" fill-rule="evenodd"/><path d="M150.5 333.92 150.5 333.92C150.313 333.921 150.15 333.789 150.104 333.599 149.46 330.712 148.649 329 147.768 329 145.688 329 144 338.627 144 350.5 144 350.992 144 351.482 144.01 351.966 144.01 352.297 144 352.631 144 352.965 143.999 354.715 144.082 356.464 144.249 358.206 144.793 366.273 146.164 372 147.768 372 147.871 372 147.972 371.978 148.066 371.934 148.557 371.69 149.118 371.653 149.634 371.831 149.91 371.942 150.204 371.999 150.5 372 154.09 372 157 363.477 157 352.96 157 342.443 154.09 333.92 150.5 333.92Z" fill="#6FE1CD" fill-rule="evenodd"/><path d="M157 353C157 342.472 154.09 333.929 150.5 333.929L150.5 333.929C150.313 333.929 150.15 333.797 150.104 333.607 149.46 330.714 148.649 329 147.768 329 145.688 329 144 338.643 144 350.536" fill="#6FB0AB" fill-rule="evenodd"/><path d="M172.996 333.931 172.996 333.931C172.795 333.931 172.619 333.799 172.569 333.61 171.878 330.724 171.006 329 170.058 329 167.816 329 166 338.627 166 350.5 166 350.992 166 351.482 166 351.966 166 352.297 166 352.631 166 352.965 165.998 354.715 166.087 356.465 166.268 358.206 166.854 366.273 168.328 372 170.058 372 170.168 372 170.276 371.978 170.377 371.934 170.905 371.69 171.51 371.653 172.065 371.831 172.364 371.942 172.68 371.999 173 372 176.866 372 180 363.477 180 352.96 180 342.443 176.862 333.931 172.996 333.931Z" fill="#6FE1CD" fill-rule="evenodd"/><path d="M179.533 360C179.849 357.718 180.005 355.417 180 353.114 180 342.541 176.865 333.961 172.998 333.961L172.998 333.961C172.797 333.961 172.621 333.828 172.571 333.638 171.88 330.735 171.008 329 170.059 329 167.816 329 166 338.684 166 350.628 166 351.123 166 351.616 166 352.102 166 352.436 166 352.772 166 353.107 165.998 354.868 166.087 356.628 166.269 358.38" fill="#6FB0AB" fill-rule="evenodd"/><path d="M194.996 333.931 194.996 333.931C194.795 333.931 194.619 333.799 194.569 333.61 193.878 330.724 193.006 329 192.058 329 189.816 329 188 338.627 188 350.5 188 350.992 188 351.482 188 351.966 188 352.297 188 352.631 188 352.965 187.998 354.715 188.087 356.465 188.268 358.206 188.854 366.273 190.328 372 192.058 372 192.168 372 192.276 371.978 192.377 371.934 192.905 371.69 193.51 371.653 194.065 371.831 194.364 371.942 194.68 371.999 195 372 198.866 372 202 363.477 202 352.96 202 342.443 198.862 333.931 194.996 333.931Z" fill="#6FE1CD" fill-rule="evenodd"/><path d="M199.535 367C201.042 363.552 202 358.415 202 352.678 202 342.296 198.865 333.871 194.998 333.871L194.998 333.871C194.797 333.871 194.621 333.741 194.571 333.554 193.88 330.703 193.008 329 192.059 329 189.816 329 188 338.509 188 350.237 188 350.723 188 351.207 188 351.684 188 352.012 188 352.342 188 352.671 187.998 354.4 188.087 356.128 188.269 357.848 188.43 360.27 188.725 362.681 189.149 365.073" fill="#6FB0AB" fill-rule="evenodd"/></g></svg>