<svg width="87" height="60" xmlns="http://www.w3.org/2000/svg" xmlns:xlink="http://www.w3.org/1999/xlink" overflow="hidden"><defs><clipPath id="clip0"><rect x="118" y="241" width="87" height="60"/></clipPath></defs><g clip-path="url(#clip0)" transform="translate(-118 -241)"><path d="M128 245.5C128 247.985 126.209 250 124 250 121.791 250 120 247.985 120 245.5 120 243.015 121.791 241 124 241 126.209 241 128 243.015 128 245.5Z" fill="#80EDFF" fill-rule="evenodd"/><path d="M129 260.5C129 265.747 126.761 270 124 270 121.239 270 119 265.747 119 260.5 119 255.253 121.239 251 124 251 126.761 251 129 255.253 129 260.5Z" fill="#80EDFF" fill-rule="evenodd"/><path d="M146 245.5C146 247.985 144.209 250 142 250 139.791 250 138 247.985 138 245.5 138 243.015 139.791 241 142 241 144.209 241 146 243.015 146 245.5Z" fill="#80EDFF" fill-rule="evenodd"/><path d="M148 260.5C148 265.747 145.538 270 142.5 270 139.462 270 137 265.747 137 260.5 137 255.253 139.462 251 142.5 251 145.538 251 148 255.253 148 260.5Z" fill="#80EDFF" fill-rule="evenodd"/><path d="M165 245.5C165 247.985 162.985 250 160.5 250 158.015 250 156 247.985 156 245.5 156 243.015 158.015 241 160.5 241 162.985 241 165 243.015 165 245.5Z" fill="#80EDFF" fill-rule="evenodd"/><path d="M166 260.5C166 265.747 163.538 270 160.5 270 157.462 270 155 265.747 155 260.5 155 255.253 157.462 251 160.5 251 163.538 251 166 255.253 166 260.5Z" fill="#80EDFF" fill-rule="evenodd"/><path d="M182 245.5C182 247.985 179.985 250 177.5 250 175.015 250 173 247.985 173 245.5 173 243.015 175.015 241 177.5 241 179.985 241 182 243.015 182 245.5Z" fill="#80EDFF" fill-rule="evenodd"/><path d="M183 260.5C183 265.747 180.538 270 177.5 270 174.462 270 172 265.747 172 260.5 172 255.253 174.462 251 177.5 251 180.538 251 183 255.253 183 260.5Z" fill="#80EDFF" fill-rule="evenodd"/><path d="M128 276C128 278.209 126.209 280 124 280 121.791 280 120 278.209 120 276 120 273.791 121.791 272 124 272 126.209 272 128 273.791 128 276Z" fill="#80EDFF" fill-rule="evenodd"/><path d="M129 291.5C129 296.747 126.761 301 124 301 121.239 301 119 296.747 119 291.5 119 286.253 121.239 282 124 282 126.761 282 129 286.253 129 291.5Z" fill="#80EDFF" fill-rule="evenodd"/><path d="M146 276C146 278.209 144.209 280 142 280 139.791 280 138 278.209 138 276 138 273.791 139.791 272 142 272 144.209 272 146 273.791 146 276Z" fill="#80EDFF" fill-rule="evenodd"/><path d="M148 291.5C148 296.747 145.538 301 142.5 301 139.462 301 137 296.747 137 291.5 137 286.253 139.462 282 142.5 282 145.538 282 148 286.253 148 291.5Z" fill="#80EDFF" fill-rule="evenodd"/><path d="M165 276C165 278.209 162.985 280 160.5 280 158.015 280 156 278.209 156 276 156 273.791 158.015 272 160.5 272 162.985 272 165 273.791 165 276Z" fill="#80EDFF" fill-rule="evenodd"/><path d="M166 291.5C166 296.747 163.538 301 160.5 301 157.462 301 155 296.747 155 291.5 155 286.253 157.462 282 160.5 282 163.538 282 166 286.253 166 291.5Z" fill="#80EDFF" fill-rule="evenodd"/><path d="M182 276C182 278.209 179.985 280 177.5 280 175.015 280 173 278.209 173 276 173 273.791 175.015 272 177.5 272 179.985 272 182 273.791 182 276Z" fill="#80EDFF" fill-rule="evenodd"/><path d="M183 291.5C183 296.747 180.538 301 177.5 301 174.462 301 172 296.747 172 291.5 172 286.253 174.462 282 177.5 282 180.538 282 183 286.253 183 291.5Z" fill="#80EDFF" fill-rule="evenodd"/><path d="M199 245.5C199 247.985 197.209 250 195 250 192.791 250 191 247.985 191 245.5 191 243.015 192.791 241 195 241 197.209 241 199 243.015 199 245.5Z" fill="#80EDFF" fill-rule="evenodd"/><path d="M200 260.5C200 265.747 197.538 270 194.5 270 191.462 270 189 265.747 189 260.5 189 255.253 191.462 251 194.5 251 197.538 251 200 255.253 200 260.5Z" fill="#80EDFF" fill-rule="evenodd"/><path d="M199 276C199 278.209 197.209 280 195 280 192.791 280 191 278.209 191 276 191 273.791 192.791 272 195 272 197.209 272 199 273.791 199 276Z" fill="#80EDFF" fill-rule="evenodd"/><path d="M200 291.5C200 296.747 197.538 301 194.5 301 191.462 301 189 296.747 189 291.5 189 286.253 191.462 282 194.5 282 197.538 282 200 286.253 200 291.5Z" fill="#80EDFF" fill-rule="evenodd"/><path d="M133 245.5C133 247.985 131.209 250 129 250 126.791 250 125 247.985 125 245.5 125 243.015 126.791 241 129 241 131.209 241 133 243.015 133 245.5Z" fill="#5FCFFF" fill-rule="evenodd"/><path d="M134 260.5C134 265.747 131.761 270 129 270 126.239 270 124 265.747 124 260.5 124 255.253 126.239 251 129 251 131.761 251 134 255.253 134 260.5Z" fill="#5FCFFF" fill-rule="evenodd"/><path d="M151 245.5C151 247.985 149.209 250 147 250 144.791 250 143 247.985 143 245.5 143 243.015 144.791 241 147 241 149.209 241 151 243.015 151 245.5Z" fill="#5FCFFF" fill-rule="evenodd"/><path d="M152 260.5C152 265.747 149.761 270 147 270 144.239 270 142 265.747 142 260.5 142 255.253 144.239 251 147 251 149.761 251 152 255.253 152 260.5Z" fill="#5FCFFF" fill-rule="evenodd"/><path d="M169 245.5C169 247.985 167.209 250 165 250 162.791 250 161 247.985 161 245.5 161 243.015 162.791 241 165 241 167.209 241 169 243.015 169 245.5Z" fill="#5FCFFF" fill-rule="evenodd"/><path d="M170 260.5C170 265.747 167.761 270 165 270 162.239 270 160 265.747 160 260.5 160 255.253 162.239 251 165 251 167.761 251 170 255.253 170 260.5Z" fill="#5FCFFF" fill-rule="evenodd"/><path d="M187 245.5C187 247.985 184.985 250 182.5 250 180.015 250 178 247.985 178 245.5 178 243.015 180.015 241 182.5 241 184.985 241 187 243.015 187 245.5Z" fill="#5FCFFF" fill-rule="evenodd"/><path d="M188 260.5C188 265.747 185.538 270 182.5 270 179.462 270 177 265.747 177 260.5 177 255.253 179.462 251 182.5 251 185.538 251 188 255.253 188 260.5Z" fill="#5FCFFF" fill-rule="evenodd"/><path d="M133 276C133 278.209 131.209 280 129 280 126.791 280 125 278.209 125 276 125 273.791 126.791 272 129 272 131.209 272 133 273.791 133 276Z" fill="#5FCFFF" fill-rule="evenodd"/><path d="M134 291.5C134 296.747 131.761 301 129 301 126.239 301 124 296.747 124 291.5 124 286.253 126.239 282 129 282 131.761 282 134 286.253 134 291.5Z" fill="#5FCFFF" fill-rule="evenodd"/><path d="M151 276C151 278.209 149.209 280 147 280 144.791 280 143 278.209 143 276 143 273.791 144.791 272 147 272 149.209 272 151 273.791 151 276Z" fill="#5FCFFF" fill-rule="evenodd"/><path d="M152 291.5C152 296.747 149.761 301 147 301 144.239 301 142 296.747 142 291.5 142 286.253 144.239 282 147 282 149.761 282 152 286.253 152 291.5Z" fill="#5FCFFF" fill-rule="evenodd"/><path d="M169 276C169 278.209 167.209 280 165 280 162.791 280 161 278.209 161 276 161 273.791 162.791 272 165 272 167.209 272 169 273.791 169 276Z" fill="#5FCFFF" fill-rule="evenodd"/><path d="M170 291.5C170 296.747 167.761 301 165 301 162.239 301 160 296.747 160 291.5 160 286.253 162.239 282 165 282 167.761 282 170 286.253 170 291.5Z" fill="#5FCFFF" fill-rule="evenodd"/><path d="M187 276C187 278.209 184.985 280 182.5 280 180.015 280 178 278.209 178 276 178 273.791 180.015 272 182.5 272 184.985 272 187 273.791 187 276Z" fill="#5FCFFF" fill-rule="evenodd"/><path d="M188 291.5C188 296.747 185.538 301 182.5 301 179.462 301 177 296.747 177 291.5 177 286.253 179.462 282 182.5 282 185.538 282 188 286.253 188 291.5Z" fill="#5FCFFF" fill-rule="evenodd"/><path d="M203 245.5C203 247.985 201.209 250 199 250 196.791 250 195 247.985 195 245.5 195 243.015 196.791 241 199 241 201.209 241 203 243.015 203 245.5Z" fill="#5FCFFF" fill-rule="evenodd"/><path d="M204 260.5C204 265.747 201.538 270 198.5 270 195.462 270 193 265.747 193 260.5 193 255.253 195.462 251 198.5 251 201.538 251 204 255.253 204 260.5Z" fill="#5FCFFF" fill-rule="evenodd"/><path d="M203 276C203 278.209 201.209 280 199 280 196.791 280 195 278.209 195 276 195 273.791 196.791 272 199 272 201.209 272 203 273.791 203 276Z" fill="#5FCFFF" fill-rule="evenodd"/><path d="M204 291.5C204 296.747 201.538 301 198.5 301 195.462 301 193 296.747 193 291.5 193 286.253 195.462 282 198.5 282 201.538 282 204 286.253 204 291.5Z" fill="#5FCFFF" fill-rule="evenodd"/></g></svg>