<svg width="132" height="41" xmlns="http://www.w3.org/2000/svg" xmlns:xlink="http://www.w3.org/1999/xlink" overflow="hidden"><g transform="translate(-122 -480)"><path d="M189.855 498.816 183.777 483.729C183.551 483.162 183.083 482.722 182.498 482.528 178.918 481.36 170.907 481 170.907 481 169.277 481.006 167.958 482.31 167.953 483.919L167.953 501.909 165.71 501.909 165.71 485.65C165.712 483.086 163.611 481.006 161.017 481L128.792 481C126.146 480.998 124.001 483.117 124 485.732 124 485.733 124 485.733 124 485.735L124 500.553C124 503.008 126.015 505 128.5 505L187.248 505C187.56 505 187.863 504.908 188.122 504.736 189.174 504.261 189.851 503.226 189.855 502.083 189.855 502.083 190.182 499.566 189.855 498.816Z" fill="#5FCFFF" fill-rule="evenodd"/><path d="M138 505C138 507.209 136.209 509 134 509 131.791 509 130 507.209 130 505 130 502.791 131.791 501 134 501 136.209 501 138 502.791 138 505Z" fill="#4254C9" fill-rule="evenodd"/><path d="M161 505C161 507.209 159.209 509 157 509 154.791 509 153 507.209 153 505 153 502.791 154.791 501 157 501 159.209 501 161 502.791 161 505Z" fill="#4254C9" fill-rule="evenodd"/><path d="M183 505C183 507.209 180.985 509 178.5 509 176.015 509 174 507.209 174 505 174 502.791 176.015 501 178.5 501 180.985 501 183 502.791 183 505Z" fill="#4254C9" fill-rule="evenodd"/><path d="M196.693 510C197.415 510 198 510 198 510L198 512C198 512 197.415 512 196.693 512L123.307 512C122.585 512 122 512 122 512L122 510C122 510 122.585 510 123.307 510Z" fill="#5FCAC8" fill-rule="evenodd"/><path d="M208.775 510C209.452 510 210 510 210 510L210 512C210 512 209.452 512 208.775 512L204.225 512C203.548 512 203 512 203 512L203 510C203 510 203.548 510 204.225 510Z" fill="#5FCAC8" fill-rule="evenodd"/><path d="M219.6 510C220.373 510 221 510 221 510L221 512C221 512 220.373 512 219.6 512L214.4 512C213.627 512 213 512 213 512L213 510C213 510 213.627 510 214.4 510Z" fill="#5FCAC8" fill-rule="evenodd"/><path d="M229.775 510C230.452 510 231 510 231 510L231 512C231 512 230.452 512 229.775 512L225.225 512C224.548 512 224 512 224 512L224 510C224 510 224.548 510 225.225 510Z" fill="#5FCAC8" fill-rule="evenodd"/><path d="M240.775 510C241.452 510 242 510 242 510L242 512C242 512 241.452 512 240.775 512L236.225 512C235.548 512 235 512 235 512L235 510C235 510 235.548 510 236.225 510Z" fill="#5FCAC8" fill-rule="evenodd"/><path d="M252.618 509.69C253.167 510.152 253.613 510.527 253.613 510.527L251.939 512.517C251.939 512.517 251.493 512.142 250.944 511.68L247.247 508.572C246.697 508.109 246.252 507.735 246.252 507.735L247.925 505.744C247.925 505.744 248.371 506.119 248.921 506.581Z" fill="#5FCAC8" fill-rule="evenodd"/><path d="M250.857 509.816C251.365 509.308 251.777 508.897 251.777 508.897L253.616 510.736C253.616 510.736 253.204 511.147 252.696 511.655L249.281 515.07C248.773 515.578 248.361 515.99 248.361 515.99L246.522 514.151C246.522 514.151 246.934 513.739 247.442 513.231Z" fill="#5FCAC8" fill-rule="evenodd"/><path d="M250.775 510C251.452 510 252 510 252 510L252 512C252 512 251.452 512 250.775 512L246.225 512C245.548 512 245 512 245 512L245 510C245 510 245.548 510 246.225 510Z" fill="#5FCAC8" fill-rule="evenodd"/><path d="M229.278 498.785C230.066 497.837 230.704 497.069 230.704 497.069L234.281 500.041C234.281 500.041 233.642 500.81 232.854 501.758L222.391 514.346C221.603 515.294 220.964 516.062 220.964 516.062L217.388 513.09C217.388 513.09 218.027 512.321 218.815 511.373Z" fill="#FF8F3F" fill-rule="evenodd"/><path d="M214.464 506.144C213.671 505.201 213.029 504.437 213.029 504.437L216.584 501.448C216.584 501.448 217.226 502.212 218.019 503.154L228.54 515.667C229.333 516.609 229.975 517.373 229.975 517.373L226.42 520.362C226.42 520.362 225.778 519.598 224.985 518.656Z" fill="#FF8F3F" fill-rule="evenodd"/></g></svg>