<svg width="237" height="119" xmlns="http://www.w3.org/2000/svg" xmlns:xlink="http://www.w3.org/1999/xlink" overflow="hidden"><defs><clipPath id="clip0"><rect x="124" y="635" width="237" height="119"/></clipPath></defs><g clip-path="url(#clip0)" transform="translate(-124 -635)"><path d="M125.5 642.5C125.5 642.5 178.457 663.038 197.339 662.088 216.22 661.138 226.654 651.683 246.071 653.663 265.488 655.643 275.84 670.313 275.241 682.394 274.3 701.401 256.706 708.706 251.953 722.538 242.71 749.46 274.483 743.423 291.443 741.704 308.402 739.986 353.306 720.048 359.5 711.796" stroke="#22C494" stroke-width="1.35622" stroke-miterlimit="8" stroke-opacity="0.729412" fill="none" fill-rule="evenodd"/><path d="M252.847 702.317C248.559 701.098 243.897 703.48 240.679 707.98 238.51 711.015 235.267 713.118 231.601 713.587 226.51 714.235 222.443 716.978 221.313 721.113 220.157 725.294 222.282 729.83 226.391 733.074 229.24 735.33 231.089 738.641 231.535 742.279 232.182 747.427 234.884 751.528 238.949 752.684 243.158 753.879 247.729 751.606 250.939 747.265 253.084 744.363 256.227 742.342 259.766 741.817 264.685 741.084 268.575 738.374 269.686 734.341 270.798 730.308 268.883 725.989 265.092 722.777 262.345 720.411 260.633 717.037 260.332 713.393 259.843 707.932 257.089 703.521 252.847 702.317Z" fill="#71DEFF" fill-rule="evenodd"/><path d="M302.999 677.283C303.078 672.931 299.737 669.095 294.787 667.142 291.448 665.825 288.711 663.269 287.382 659.914 285.538 655.252 282.009 652.077 277.905 652.001 273.757 651.924 270.076 655.035 268.077 659.711 266.686 662.955 264.076 665.511 260.819 666.818 256.211 668.681 253.076 672.23 253.001 676.359 252.923 680.632 256.141 684.405 260.942 686.393 264.152 687.718 266.79 690.204 268.142 693.425 270.02 697.901 273.475 700.923 277.473 700.999 281.471 701.074 285.007 698.21 287.052 693.845 288.57 690.671 291.275 688.232 294.573 687.064 299.519 685.266 302.92 681.589 302.999 677.283Z" fill="#71DEFF" fill-rule="evenodd"/><path d="M209.894 637.496C206.457 634.295 200.973 634.263 195.825 636.885 192.358 638.652 188.329 639.043 184.676 637.709 179.601 635.857 174.506 636.446 171.483 639.73 168.427 643.05 168.27 648.278 170.583 653.265 172.187 656.731 172.356 660.695 171.052 664.286 169.226 669.373 169.814 674.475 173.076 677.505 176.449 680.642 181.804 680.738 186.861 678.26 190.243 676.602 194.142 676.244 197.694 677.46 202.645 679.152 207.566 678.514 210.516 675.311 213.467 672.109 213.702 667.179 211.68 662.376 210.227 658.857 210.22 654.904 211.661 651.38 213.792 646.074 213.297 640.658 209.894 637.496Z" fill="#71DEFF" fill-rule="evenodd"/><path d="M144.205 648.245C145.477 647.676 146.509 647.214 146.509 647.214L149.085 652.974C149.085 652.974 148.054 653.435 146.781 654.005L133.151 660.102C131.878 660.671 130.847 661.133 130.847 661.133L128.27 655.373C128.27 655.373 129.302 654.911 130.574 654.342Z" fill="#22C494" fill-rule="evenodd" fill-opacity="0.729412"/><path d="M239.349 653.255C240.295 652.232 241.063 651.402 241.063 651.402L245.695 655.686C245.695 655.686 244.928 656.516 243.982 657.539L233.844 668.502C232.898 669.526 232.13 670.355 232.13 670.355L227.498 666.071C227.498 666.071 228.265 665.242 229.211 664.218Z" fill="#22C494" fill-rule="evenodd" fill-opacity="0.729412"/><path d="M321.334 730.812C321.94 729.557 322.431 728.539 322.431 728.539L328.114 731.28C328.114 731.28 327.623 732.298 327.018 733.554L320.531 747.003C319.925 748.258 319.434 749.276 319.434 749.276L313.751 746.535C313.751 746.535 314.242 745.517 314.847 744.261Z" fill="#22C494" fill-rule="evenodd" fill-opacity="0.729412"/><path d="M287.94 729.836C286.981 728.825 286.204 728.004 286.204 728.004L290.784 723.664C290.784 723.664 291.561 724.484 292.52 725.496L302.791 736.334C303.75 737.346 304.527 738.167 304.527 738.167L299.947 742.507C299.947 742.507 299.17 741.687 298.211 740.675Z" fill="#22C494" fill-rule="evenodd" fill-opacity="0.729412"/><path d="M243.762 641.519C243.302 640.203 242.929 639.136 242.929 639.136L248.886 637.055C248.886 637.055 249.259 638.122 249.719 639.437L254.193 652.241C254.652 653.557 255.025 654.624 255.025 654.624L249.068 656.705C249.068 656.705 248.696 655.639 248.236 654.322Z" fill="#22C494" fill-rule="evenodd" fill-opacity="0.729412"/></g></svg>